<!DOCTYPE svg PUBLIC "-//W3C//DTD SVG 1.1//EN" "http://www.w3.org/Graphics/SVG/1.1/DTD/svg11.dtd">
<svg xmlns="http://www.w3.org/2000/svg">
<metadata>Generated by IcoMoon</metadata>
<defs>
<font id="scalia-opc-icons" horiz-adv-x="1024">
<font-face units-per-em="1024" ascent="960" descent="-64"/>
<missing-glyph horiz-adv-x="1024"/>
<glyph unicode=" " d="" horiz-adv-x="512"/>
<glyph unicode="" d="M998.131 53.894c-0.323 0-0.701 0-1.078 0h-970.105c-9.755 0-18.755 5.282-23.552 13.797s-4.527 18.971 0.593 27.271l485.053 786.54c9.863 15.899 36.056 15.899 45.918 0l481.711-781.096c5.228-4.904 8.461-11.911 8.461-19.618-0.054-14.821-12.126-26.893-27.001-26.893zM75.237 107.789h873.526l-436.763 708.231-436.763-708.231z"/>
<glyph unicode="" d="M134.737-53.895c-4.527 0-9.054 1.132-13.15 3.395-8.515 4.797-13.797 13.797-13.797 23.552v970.105c0 9.755 5.282 18.755 13.797 23.552s18.917 4.527 27.271-0.593l786.54-485.053c7.923-4.904 12.773-13.581 12.773-22.959s-4.851-18.001-12.773-22.959l-786.54-485.053c-4.312-2.641-9.216-3.988-14.12-3.988zM161.684 894.868v-873.526l708.231 436.763-708.231 436.763z"/>
<glyph unicode="" d="M512 21.881c-9.324 0-18.001 4.851-22.959 12.773l-485.053 786.54c-5.066 8.354-5.282 18.755-0.539 27.325s13.743 13.797 23.498 13.797h970.105c9.755 0 18.755-5.282 23.552-13.797s4.527-18.971-0.593-27.271l-485.053-786.54c-4.904-7.976-13.581-12.827-22.959-12.827zM75.237 808.421l436.763-708.231 436.763 708.231h-873.526z"/>
<glyph unicode="" d="M889.263-53.895c-4.904 0-9.809 1.347-14.174 3.988l-786.54 485.053c-7.923 4.958-12.773 13.635-12.773 22.959s4.851 18.001 12.773 22.959l786.54 485.053c8.354 5.12 18.809 5.336 27.271 0.593 8.569-4.797 13.851-13.797 13.851-23.552v-970.105c0-9.755-5.282-18.755-13.797-23.552-4.096-2.264-8.623-3.395-13.15-3.395zM154.085 458.105l708.231-436.763v873.526l-708.231-436.763z"/>
<glyph unicode="" d="M512-85.333c-7.168 0-13.867 3.584-17.792 9.6-13.227 19.968-323.541 491.947-323.541 673.067 0 188.203 153.131 341.333 341.333 341.333s341.333-153.131 341.333-341.333c0-181.12-310.315-653.099-323.541-673.067-3.925-6.016-10.624-9.6-17.792-9.6zM512 896c-164.693 0-298.667-133.973-298.667-298.667 0-144.896 231.851-517.632 298.667-622.080 66.816 104.448 298.667 477.227 298.667 622.080 0 164.693-133.973 298.667-298.667 298.667zM512 448c-82.347 0-149.333 66.987-149.333 149.333s66.987 149.333 149.333 149.333 149.333-66.987 149.333-149.333-66.987-149.333-149.333-149.333zM512 704c-58.795 0-106.667-47.872-106.667-106.667s47.872-106.667 106.667-106.667 106.667 47.872 106.667 106.667-47.872 106.667-106.667 106.667z"/>
<glyph unicode="" d="M746.667 938.667h-469.333c-58.795 0-106.667-47.872-106.667-106.667v-810.667c0-58.795 47.872-106.667 106.667-106.667h469.333c58.795 0 106.667 47.872 106.667 106.667v810.667c0 58.795-47.872 106.667-106.667 106.667zM213.333 725.334h597.333v-597.333h-597.333v597.333zM277.333 896h469.333c35.285 0 64-28.715 64-64v-64h-597.333v64c0 35.285 28.715 64 64 64zM746.667-42.666h-469.333c-35.285 0-64 28.715-64 64v64h597.333v-64c0-35.285-28.715-64-64-64zM556.245 21.334c0-24.436-19.809-44.245-44.245-44.245s-44.245 19.809-44.245 44.245c0 24.436 19.809 44.245 44.245 44.245s44.245-19.809 44.245-44.245zM405.333 810.667h213.333c11.776 0 21.333 9.557 21.333 21.333s-9.557 21.333-21.333 21.333h-213.333c-11.776 0-21.333-9.557-21.333-21.333s9.557-21.333 21.333-21.333z"/>
<glyph unicode="" d="M725.333 513.664h-448c-11.776 0-21.333-9.557-21.333-21.333s9.557-21.333 21.333-21.333h448c11.776 0 21.333 9.557 21.333 21.333s-9.557 21.333-21.333 21.333zM725.333 342.998h-448c-11.776 0-21.333-9.557-21.333-21.333s9.557-21.333 21.333-21.333h448c11.776 0 21.333 9.557 21.333 21.333s-9.557 21.333-21.333 21.333zM725.333 172.331h-448c-11.776 0-21.333-9.557-21.333-21.333s9.557-21.333 21.333-21.333h448c11.776 0 21.333 9.557 21.333 21.333s-9.557 21.333-21.333 21.333zM925.568 681.003l-204.544 208.597c0 0-0.043 0-0.043 0.043-1.963 1.963-4.309 3.584-6.912 4.693-2.645 1.109-5.419 1.664-8.235 1.664 0 0 0 0-0.043 0h-599.125c-11.776 0-21.333-9.557-21.333-21.333v-896c0-11.776 9.557-21.333 21.333-21.333h810.667c11.776 0 21.333 9.557 21.333 21.333v682.667c0 8.875-5.376 16.427-13.099 19.669zM727.125 822.443l137.088-139.776h-137.088v139.776zM128-0v853.333h556.459v-188.459c0-0.64 0.299-1.152 0.341-1.792-0.043-0.64-0.341-1.152-0.341-1.792 0-11.776 9.557-21.333 21.333-21.333h190.208v-640h-768z"/>
<glyph unicode="" d="M938.667 85.334h-853.333c-47.061 0-85.333 38.272-85.333 85.333v512c0 47.061 38.272 85.333 85.333 85.333h853.333c47.061 0 85.333-38.272 85.333-85.333v-512c0-47.061-38.272-85.333-85.333-85.333zM85.333 725.334c-23.509 0-42.667-19.157-42.667-42.667v-512c0-23.509 19.157-42.667 42.667-42.667h853.333c23.509 0 42.667 19.157 42.667 42.667v512c0 23.509-19.157 42.667-42.667 42.667h-853.333zM512 320c-4.053 0-8.064 1.152-11.563 3.413l-362.667 234.667c-9.899 6.4-12.757 19.627-6.357 29.483s19.627 12.715 29.483 6.357l351.104-227.157 351.104 227.157c9.856 6.357 23.125 3.541 29.483-6.315 6.4-9.899 3.541-23.083-6.315-29.483l-362.667-234.667c-3.541-2.304-7.552-3.456-11.605-3.456zM149.333 234.667c-7.424 0-14.592 3.84-18.56 10.752-5.845 10.24-2.304 23.253 7.936 29.099l149.333 85.333c10.155 5.931 23.253 2.304 29.099-7.936s2.304-23.253-7.936-29.099l-149.333-85.333c-3.285-1.92-6.955-2.816-10.539-2.816zM874.667 234.667c-3.584 0-7.211 0.896-10.581 2.816l-149.333 85.333c-10.24 5.845-13.781 18.859-7.936 29.099s18.859 13.867 29.099 7.936l149.333-85.333c10.24-5.845 13.781-18.859 7.936-29.099-3.925-6.912-11.136-10.752-18.517-10.752z"/>
<glyph unicode="" d="M512-48.762c-282.331 0-512 229.669-512 512s229.669 512 512 512c282.331 0 512-229.669 512-512s-229.669-512-512-512zM512 926.476c-255.415 0-463.238-207.823-463.238-463.238s207.823-463.238 463.238-463.238c255.415 0 463.238 207.823 463.238 463.238s-207.774 463.238-463.238 463.238zM780.288 438.857h-536.478c-13.458 0-24.381 10.923-24.381 24.381s10.923 24.381 24.381 24.381h536.478c13.458 0 24.381-10.923 24.381-24.381s-10.874-24.381-24.381-24.381z"/>
<glyph unicode="" d="M512 975.238c-282.331 0-512-229.669-512-512s229.669-512 512-512c282.331 0 512 229.669 512 512s-229.669 512-512 512zM512 0c-255.415 0-463.238 207.823-463.238 463.238s207.823 463.238 463.238 463.238 463.238-207.823 463.238-463.238-207.823-463.238-463.238-463.238zM780.288 487.619h-243.858v243.858c0 13.458-10.923 24.381-24.381 24.381s-24.381-10.923-24.381-24.381v-243.858h-243.858c-13.458 0-24.381-10.923-24.381-24.381s10.923-24.381 24.381-24.381h243.858v-243.858c0-13.458 10.923-24.381 24.381-24.381s24.381 10.923 24.381 24.381v243.858h243.858c13.458 0 24.381 10.923 24.381 24.381s-10.923 24.381-24.381 24.381z"/>
<glyph unicode="" d="M891.145-0.152h-227.593c-36.712 0-68.343 13.047-94.018 38.76-25.676 25.638-38.722 57.306-38.722 94.018v417.375c0 43.653 8.609 85.751 25.562 125.156 16.839 39.481 40.050 74.069 68.836 102.855 28.975 28.9 63.602 52.072 102.855 68.873 39.595 16.953 81.692 25.562 125.193 25.562h37.888c15.208 0 29.127-5.803 40.126-16.839 11.036-10.999 16.839-24.879 16.839-40.126v-75.852c0-15.17-5.803-29.051-16.801-40.088-10.923-10.999-24.804-16.839-40.164-16.839h-37.926c-37.016 0-67.736-12.705-93.943-38.912-26.131-26.207-38.836-56.927-38.836-93.905v-18.925c0-10.771 3.527-19.304 11.074-26.927 7.509-7.471 16.081-10.999 26.889-10.999h132.741c36.788 0 68.418-13.047 94.056-38.798 25.714-25.676 38.798-57.344 38.798-93.98v-227.593c0-36.674-13.084-68.343-38.798-94.056s-57.42-38.76-94.056-38.76zM853.257 834.522c-38.305 0-75.397-7.585-110.213-22.49-34.854-14.943-65.498-35.423-90.984-60.871-25.372-25.335-45.852-55.941-60.833-90.984-14.943-34.664-22.49-71.718-22.49-110.175v-417.299c0-26.738 9.026-48.735 27.61-67.281 18.584-18.622 40.581-27.648 67.205-27.648h227.593c26.586 0 48.583 9.064 67.205 27.648s27.724 40.581 27.724 67.243v227.593c0 26.624-9.064 48.583-27.686 67.205-18.584 18.622-40.543 27.648-67.243 27.648h-132.741c-20.935 0-38.988 7.433-53.703 22.111-14.753 14.829-22.187 32.882-22.187 53.741v18.963c0 46.839 16.801 87.457 49.911 120.718 33.261 33.185 73.88 50.024 120.794 50.024h37.926c5.31 0 9.368 1.745 13.274 5.613 3.982 4.020 5.765 8.154 5.765 13.388v75.852c0 5.234-1.783 9.33-5.727 13.274-3.944 3.982-8.078 5.727-13.312 5.727h-37.888zM360.334-0.152h-227.593c-36.712 0-68.343 13.047-94.018 38.76-25.676 25.638-38.722 57.306-38.722 94.056v417.337c0 43.653 8.609 85.751 25.562 125.156 16.839 39.481 40.050 74.069 68.836 102.855 28.975 28.9 63.602 52.072 102.855 68.873 39.595 16.953 81.692 25.562 125.193 25.562h37.888c15.208 0 29.127-5.803 40.126-16.839 11.036-10.999 16.839-24.879 16.839-40.126v-75.852c0-15.17-5.803-29.051-16.801-40.088-10.923-10.999-24.804-16.839-40.164-16.839h-37.926c-37.016 0-67.736-12.705-93.943-38.912-26.131-26.169-38.836-56.889-38.836-93.867v-18.963c0-10.771 3.527-19.304 11.074-26.927 7.509-7.471 16.081-10.999 26.889-10.999h132.741c36.788 0 68.418-13.047 94.056-38.798 25.714-25.714 38.76-57.344 38.76-94.018v-227.593c0-36.674-13.084-68.343-38.798-94.056s-57.382-38.722-94.018-38.722zM322.446 834.522c-38.305 0-75.397-7.585-110.213-22.49-34.854-14.905-65.498-35.385-91.022-60.871-25.372-25.335-45.852-55.941-60.795-90.984-14.943-34.664-22.49-71.718-22.49-110.175v-417.299c0-26.738 9.026-48.735 27.61-67.281 18.584-18.622 40.581-27.648 67.205-27.648h227.593c26.586 0 48.583 9.064 67.205 27.648s27.686 40.581 27.686 67.205v227.593c0 26.624-9.064 48.583-27.686 67.205-18.546 18.66-40.505 27.686-67.205 27.686h-132.741c-20.935 0-38.988 7.433-53.703 22.111-14.753 14.867-22.187 32.92-22.187 53.741v18.963c0 46.839 16.801 87.457 49.911 120.718 33.261 33.185 73.88 50.024 120.794 50.024h37.926c5.31 0 9.368 1.745 13.274 5.613 3.982 4.020 5.765 8.154 5.765 13.388v75.852c0 5.234-1.783 9.33-5.727 13.274-3.982 3.982-8.078 5.727-13.312 5.727h-37.888z"/>
<glyph unicode="" d="M170.743-0.152h-37.888c-15.208 0-29.127 5.803-40.126 16.839-11.036 10.999-16.839 24.879-16.839 40.126v75.852c0 15.17 5.803 29.051 16.801 40.088 10.923 10.999 24.804 16.839 40.164 16.839h37.926c37.016 0 67.736 12.705 93.943 38.912 26.131 26.207 38.836 56.927 38.836 93.905v18.925c0 10.771-3.527 19.304-11.074 26.927-7.509 7.471-16.081 10.999-26.889 10.999h-132.741c-36.788 0-68.418 13.047-94.056 38.798-25.714 25.676-38.798 57.344-38.798 93.98v227.593c0 36.674 13.084 68.343 38.798 94.056s57.42 38.76 94.018 38.76h227.593c36.712 0 68.343-13.047 94.018-38.76 25.676-25.638 38.722-57.306 38.722-94.018v-417.337c0-43.653-8.609-85.751-25.562-125.156-16.839-39.481-40.050-74.069-68.836-102.855-28.975-28.9-63.602-52.072-102.855-68.873-39.557-17.029-81.692-25.6-125.156-25.6zM132.855 151.666c-5.31 0-9.368-1.745-13.274-5.613-3.982-4.020-5.765-8.154-5.765-13.388v-75.852c0-5.234 1.783-9.33 5.727-13.274 3.944-3.982 8.078-5.727 13.312-5.727h37.888c38.305 0 75.397 7.585 110.213 22.49 34.854 14.943 65.498 35.423 90.984 60.871 25.372 25.335 45.852 55.941 60.833 90.984 14.943 34.664 22.49 71.718 22.49 110.175v417.261c0 26.738-9.026 48.735-27.61 67.281-18.584 18.622-40.581 27.648-67.205 27.648h-227.593c-26.586 0-48.583-9.064-67.205-27.648s-27.724-40.581-27.724-67.243v-227.593c0-26.624 9.064-48.583 27.686-67.205 18.584-18.622 40.543-27.648 67.243-27.648h132.741c20.935 0 38.988-7.433 53.703-22.111 14.753-14.867 22.187-32.92 22.187-53.741v-18.963c0-46.839-16.801-87.457-49.911-120.718-33.261-33.185-73.88-50.024-120.794-50.024h-37.926zM701.554-0.152h-37.888c-15.208 0-29.127 5.803-40.126 16.839-11.036 10.999-16.839 24.879-16.839 40.126v75.852c0 15.17 5.803 29.051 16.801 40.088 10.923 10.999 24.804 16.839 40.164 16.839h37.926c37.016 0 67.736 12.705 93.943 38.912 26.131 26.169 38.836 56.889 38.836 93.867v18.963c0 10.771-3.527 19.304-11.074 26.927-7.509 7.471-16.081 10.999-26.889 10.999h-132.741c-36.788 0-68.418 13.047-94.056 38.798-25.714 25.714-38.76 57.344-38.76 94.018v227.556c0 36.674 13.084 68.343 38.798 94.056s57.42 38.76 94.018 38.76h227.593c36.712 0 68.343-13.047 94.018-38.76 25.676-25.638 38.722-57.306 38.722-94.056v-417.337c0-43.653-8.609-85.751-25.562-125.156-16.839-39.481-40.050-74.069-68.836-102.855-28.975-28.9-63.602-52.072-102.855-68.873-39.595-16.991-81.692-25.562-125.193-25.562zM663.666 151.666c-5.31 0-9.368-1.745-13.274-5.613-3.982-4.020-5.765-8.154-5.765-13.388v-75.852c0-5.234 1.783-9.33 5.727-13.274 3.944-3.982 8.078-5.727 13.312-5.727h37.888c38.305 0 75.397 7.585 110.213 22.49 34.854 14.943 65.498 35.423 90.984 60.871 25.372 25.335 45.852 55.941 60.833 90.984 14.943 34.626 22.49 71.68 22.49 110.137v417.299c0 26.738-9.026 48.735-27.61 67.281-18.584 18.622-40.581 27.648-67.205 27.648h-227.593c-26.586 0-48.583-9.064-67.205-27.648s-27.686-40.581-27.686-67.205v-227.593c0-26.624 9.064-48.583 27.686-67.205 18.546-18.66 40.505-27.686 67.205-27.686h132.741c20.935 0 38.988-7.433 53.703-22.111 14.753-14.867 22.187-32.92 22.187-53.741v-18.963c0-46.839-16.801-87.457-49.911-120.718-33.261-33.185-73.88-50.024-120.794-50.024h-37.926z"/>
<glyph unicode="" d="M128.926 3.462c-13.702 0-26.185 6.924-35.109 19.505-3.023 3.998-6.242 9.314-9.265 15.75l-7.509 16.725c-2.974 6.485-4.974 11.215-6.095 14.043-47.592 106.496-70.949 190.025-70.949 254.488 0 74.947 10.289 138.923 30.525 190.123 62.659 155.843 230.498 234.74 498.834 234.74h104.643v114.932c0 15.799 5.998 30.232 17.31 41.691 23.113 23.113 60.904 22.772 83.578 0.098l271.848-278.869c11.069-11.069 17.262-26.331 17.262-42.715 0-15.506-5.705-28.77-17.506-40.57l-271.36-278.43c-23.357-23.259-60.709-23.016-83.675-0.293-11.459 11.362-17.554 25.795-17.554 41.789v114.932h-104.643c-34.816 0-66.316-1.073-93.623-3.17-27.209-2.097-54.37-5.949-80.798-11.313-25.649-5.218-48.079-12.337-66.706-21.26-18.432-8.777-35.84-20.285-51.931-34.231-15.36-13.312-28.136-29.452-37.937-47.933-10.142-19.115-18.237-42.374-24.088-69.193-5.949-27.014-8.972-58.368-8.972-93.233 0-19.407 0.926-41.204 2.682-65.146 0.098-3.413 0.488-6.534 1.122-11.069 1.122-8.094 1.609-13.946 1.609-17.944 0-11.215-3.56-21.406-10.338-29.403-7.704-9.070-18.871-14.043-31.354-14.043zM529.359 700.123c-246.54 0-399.116-68.657-453.583-204.069-17.896-45.349-27.014-103.278-27.014-172.081 0-56.71 22.577-135.899 67.048-235.471 0.78-1.853 1.658-3.95 2.779-6.437-1.414 20.675-2.146 40.814-2.146 58.953 0 38.424 3.365 73.289 10.094 103.668 6.827 31.159 16.433 58.661 28.672 81.627 12.629 23.796 29.111 44.666 49.103 61.976 19.31 16.774 40.521 30.72 62.854 41.35 22.187 10.63 48.421 19.066 78.019 25.064 28.379 5.803 57.588 9.85 86.747 12.142 28.574 2.194 61.342 3.316 97.378 3.316h153.356v-163.694c0-2.974 0.878-4.974 3.072-7.168 5.51-5.51 9.46-5.315 14.629-0.098l271.36 278.43c3.511 3.462 3.511 4.535 3.511 6.339 0 1.95-0.439 5.656-3.17 8.436l-271.848 278.869c-4.779 4.827-9.118 4.974-14.238-0.195-2.682-2.682-3.17-4.779-3.17-7.314v-163.645h-153.454z"/>
<glyph unicode="" d="M249.507 391.952h469.471c6.013 0 10.894 4.88 10.894 10.894s-4.88 10.894-10.894 10.894h-469.471c-6.013 0-10.894-4.88-10.894-10.894s4.88-10.894 10.894-10.894zM789.874 326.808h-540.367c-6.013 0-10.894-4.88-10.894-10.894s4.88-10.894 10.894-10.894h540.367c6.013 0 10.894 4.88 10.894 10.894s-4.88 10.894-10.894 10.894zM789.874 501.106h-540.367c-6.013 0-10.894-4.88-10.894-10.894s4.88-10.894 10.894-10.894h540.367c6.013 0 10.894 4.88 10.894 10.894s-4.88 10.894-10.894 10.894zM249.507 217.872h469.471c6.013 0 10.894 4.88 10.894 10.894s-4.88 10.894-10.894 10.894h-469.471c-6.013 0-10.894-4.88-10.894-10.894s4.88-10.894 10.894-10.894zM789.874 152.51h-540.367c-6.013 0-10.894-4.88-10.894-10.894s4.88-10.894 10.894-10.894h540.367c6.013 0 10.894 4.88 10.894 10.894s-4.88 10.894-10.894 10.894zM974.107 718.935l-233.45 236.457c-1.002 1.024-2.222 1.83-3.551 2.397s-2.745 0.85-4.14 0.85c-0.022 0-0.022 0-0.044 0h-678.454c-6.013 0-10.894-4.88-10.894-10.894v-1002.213c0-6.013 4.88-10.894 10.894-10.894h915.064c6.013 0 10.894 4.88 10.894 10.894v763.599c0 4.379-2.593 8.061-6.318 9.804zM743.816 921.208l198.634-201.183h-198.634v201.183zM65.362-43.575v980.426h656.667v-223.777c0-0.697 0.283-1.329 0.414-1.983-0.131-0.654-0.414-1.285-0.414-1.983 0-6.013 4.88-10.894 10.894-10.894h225.716v-741.79h-893.277z"/>
<glyph unicode="" d="M1013.106 740.766c-6.013 0-10.894-4.88-10.894-10.894v-773.447h-773.447c-6.013 0-10.894-4.88-10.894-10.894s4.88-10.894 10.894-10.894h784.34c6.013 0 10.894 4.88 10.894 10.894v784.34c0 6.013-4.88 10.894-10.894 10.894zM936.851 32.681v795.234c0 6.013-4.88 10.894-10.894 10.894s-10.894-4.88-10.894-10.894v-784.34h-795.234c-6.013 0-10.894-4.88-10.894-10.894s4.88-10.894 10.894-10.894h806.128c6.013 0 10.894 4.88 10.894 10.894zM849.702 119.829v827.915c0 6.013-4.88 10.894-10.894 10.894h-827.915c-6.013 0-10.894-4.88-10.894-10.894v-827.915c0-6.013 4.88-10.894 10.894-10.894h827.915c6.013 0 10.894 4.88 10.894 10.894zM827.915 936.851v-631.83h-90.504l-128.065 341.537c-1.416 3.813-4.902 6.514-8.933 6.994-4.14 0.479-8.039-1.373-10.327-4.771l-166.215-249.311-99.589 119.525c-2.266 2.702-5.774 4.205-9.194 3.878-3.53-0.283-6.71-2.244-8.519-5.251l-127.542-212.6h-157.238v631.83h806.128zM714.164 305.021h-509.734l112.945 188.22 99.132-118.937c2.179-2.636 5.534-4.009 8.933-3.9 3.442 0.196 6.58 1.983 8.497 4.837l162.511 243.756 117.716-313.976zM21.787 130.723v152.511h806.128v-152.511h-806.128zM250.553 675.404c42.049 0 76.255 34.206 76.255 76.255s-34.206 76.255-76.255 76.255-76.255-34.206-76.255-76.255 34.206-76.255 76.255-76.255zM250.553 806.127c30.045 0 54.468-24.445 54.468-54.468s-24.423-54.468-54.468-54.468-54.468 24.445-54.468 54.468 24.423 54.468 54.468 54.468z"/>
<glyph unicode="" d="M555.574 413.957h-305.021c-42.049 0-76.255-34.206-76.255-76.255s34.206-76.255 76.255-76.255 76.255 34.206 76.255 76.255c0 21.33-8.867 40.611-23.073 54.468h198.634c-14.183-13.857-23.051-33.138-23.051-54.468 0-42.049 34.206-76.255 76.255-76.255s76.255 34.206 76.255 76.255-34.206 76.255-76.255 76.255zM305.021 337.702c0-30.023-24.423-54.468-54.468-54.468s-54.468 24.445-54.468 54.468 24.423 54.468 54.468 54.468 54.468-24.445 54.468-54.468zM555.574 283.234c-30.045 0-54.468 24.445-54.468 54.468s24.423 54.468 54.468 54.468 54.468-24.445 54.468-54.468-24.423-54.468-54.468-54.468zM1008.684 505.42c-9.608 6.384-21.678 7.517-32.245 3.116l-213.885-89.132v92.596c0 30.023-24.423 54.468-54.468 54.468h-32.681v119.83c0 18.018 14.663 32.681 32.681 32.681h77.366c5.055-24.837 27.038-43.574 53.357-43.574h130.723c30.045 0 54.468 24.445 54.468 54.468s-24.423 54.468-54.468 54.468h-130.723c-26.319 0-48.302-18.737-53.357-43.574h-77.366c-30.045 0-54.468-24.445-54.468-54.468v-119.83h-152.511v76.255c0 30.023-24.423 54.468-54.468 54.468h-435.745c-6.013 0-10.894-4.88-10.894-10.894s4.88-10.894 10.894-10.894h435.745c18.018 0 32.681-14.663 32.681-32.681v-76.255h-381.277c-30.045 0-54.468-24.445-54.468-54.468v-348.596c0-30.023 24.423-54.468 54.468-54.468h610.043c30.045 0 54.468 24.445 54.468 54.468v92.596l213.863-89.11c4.249-1.787 8.737-2.658 13.203-2.658 6.689 0 13.312 1.961 19.086 5.795 9.586 6.405 15.295 17.081 15.295 28.563v278.223c0 11.482-5.708 22.158-15.316 28.607zM838.809 762.553h130.723c18.018 0 32.681-14.663 32.681-32.681s-14.663-32.681-32.681-32.681h-130.723c-18.018 0-32.681 14.663-32.681 32.681s14.663 32.681 32.681 32.681zM708.085 130.723h-610.043c-18.018 0-32.681 14.663-32.681 32.681v348.596c0 18.018 14.663 32.681 32.681 32.681h610.043c18.018 0 32.681-14.663 32.681-32.681v-108.871c0 0 0-0.022 0-0.022v-130.811c0 0 0 0 0-0.022v-108.871c0-18.018-14.663-32.681-32.681-32.681zM1002.213 198.59c0-4.205-2.113-8.127-5.578-10.458-3.508-2.353-7.952-2.767-11.83-1.155l-222.252 92.618v116.213l222.252 92.596c3.922 1.612 8.301 1.198 11.787-1.133 3.508-2.331 5.621-6.253 5.621-10.458v-278.223z"/>
<glyph unicode="" d="M287.766 43.574c-39.217 0-76.059 15.273-103.794 43.008l-32.049 31.984c-27.713 27.757-42.986 64.621-42.986 103.838 0 39.195 15.273 76.059 43.008 103.794l208.221 208.221c27.713 27.735 64.599 43.008 103.816 43.008 39.195 0 76.059-15.273 103.816-43.008l32.005-32.049c4.249-4.27 4.249-11.155 0-15.425-4.249-4.227-11.155-4.249-15.404 0l-32.005 32.049c-23.617 23.617-55.013 36.624-88.413 36.624s-64.795-13.007-88.413-36.624l-208.221-208.221c-23.617-23.596-36.624-54.991-36.624-88.369 0-33.4 13.007-64.795 36.624-88.413l32.049-31.984c23.596-23.639 54.991-36.646 88.369-36.646 33.4 0 64.795 13.007 88.413 36.624l144.144 144.123c4.249 4.249 11.155 4.249 15.404 0s4.249-11.155 0-15.404l-144.144-144.123c-27.735-27.735-64.577-43.008-103.816-43.008zM560.063 315.849c-39.217 0-76.081 15.295-103.838 43.030-4.249 4.249-4.249 11.155 0 15.404s11.155 4.249 15.404 0c23.639-23.617 55.013-36.646 88.434-36.646 33.378 0 64.773 13.029 88.391 36.646l208.221 208.199c23.596 23.596 36.603 54.991 36.603 88.391s-13.007 64.795-36.624 88.413l-32.049 32.027c-23.596 23.596-54.991 36.603-88.391 36.603-33.378 0-64.773-13.007-88.391-36.624l-144.144-144.123c-4.249-4.249-11.155-4.249-15.404 0s-4.249 11.155 0 15.404l144.144 144.123c27.735 27.735 64.577 43.008 103.794 43.008 39.239 0 76.081-15.273 103.816-43.008l32.049-32.027c27.713-27.713 42.986-64.577 42.986-103.794s-15.273-76.081-43.008-103.794l-208.221-208.199c-27.713-27.757-64.556-43.030-103.773-43.030z"/>
<glyph unicode="" d="M331.776 43.496c-117.37 0-225.231 31.354-320.61 93.184-9.801 6.339-13.702 18.725-9.362 29.501 4.291 10.776 15.36 17.164 27.209 14.872 8.29-1.56 26.38-1.707 44.227-1.707 67.974 0 128.488 15.214 183.54 46.275-23.942 7.509-46.324 19.115-66.95 34.718-37.839 28.623-64.268 66.316-78.507 112.104-2.828 8.972-0.146 18.773 6.778 25.161 1.95 1.804 4.194 3.267 6.534 4.291-12.386 9.996-23.747 21.406-34.182 34.328-33.597 41.691-49.932 89.039-49.932 144.725 0 8.631 4.584 16.628 12.044 21.016 6.095 3.657 13.458 4.34 20.187 2.048-21.504 34.328-32.378 74.069-32.378 118.784 0 38.034 10.386 75.678 30.818 111.86 3.95 7.022 11.118 11.605 19.163 12.337 8.533 0.878 15.896-2.633 21.016-8.875 96.549-118.248 219.087-184.466 364.544-197.144-0.536 5.851-0.829 11.849-0.829 18.091 0 61.538 21.992 114.786 65.39 158.33 43.934 43.544 97.914 65.585 160.524 65.585 59.782 0 110.787-19.992 151.893-59.392 36.62 8.631 72.070 22.333 108.056 41.545 10.923 5.851 24.674 2.536 31.695-7.899 4.681-6.973 5.315-15.555 2.341-22.918-6.193-19.7-14.824-37.937-25.893-54.613 7.022 2.633 13.848 5.461 20.675 8.485 9.85 4.389 21.455 1.755 28.526-6.534 7.022-8.241 7.704-20.187 1.707-29.208-24.869-37.498-57.051-72.021-95.817-102.644v-13.556c0-95.525-22.235-188.416-66.024-275.944-43.886-88.405-113.079-164.133-205.58-224.89-92.355-60.952-200.314-91.916-320.805-91.916zM121.856 133.12c65.146-27.16 135.412-40.862 209.92-40.862 110.787 0 209.676 28.233 293.937 83.87 85.187 55.979 148.675 125.269 188.709 205.922 40.472 80.798 60.952 166.327 60.952 254.196v25.551c0 7.656 3.608 14.872 9.704 19.456 14.677 11.069 28.331 22.626 40.911 34.767-12.19-2.779-24.576-5.022-37.059-6.827-11.215-1.658-22.382 5.022-26.331 15.848-3.95 10.874 0.293 22.967 10.094 29.062 17.896 11.069 32.866 23.747 44.958 38.132-22.333-8.192-44.812-14.58-67.877-19.261-8.387-1.658-17.018 1.073-22.772 7.314-33.548 36.279-74.85 53.931-126.098 53.931-49.932 0-91.185-16.823-126.098-51.346-34.28-34.475-51.054-74.996-51.054-123.806 0-14.141 1.707-26.478 5.071-36.62 2.536-7.558 1.122-15.896-3.608-22.333-4.827-6.388-12.971-10.24-20.382-9.752-160.963 5.608-297.448 68.754-406.187 187.782-6.437-18.237-9.557-36.571-9.557-55.296 0-62.513 25.649-110.738 78.409-147.358 9.070-6.29 12.776-17.896 9.070-28.282-3.657-10.435-13.312-17.164-24.966-16.091-20.968 1.755-40.716 5.559-59.002 11.41 5.315-27.989 17.067-52.614 35.645-75.678 25.844-32.037 59.685-52.663 100.498-61.294 11.069-2.341 19.066-11.947 19.31-23.211 0.293-11.264-7.168-21.309-18.091-24.186-17.652-4.73-36.669-7.217-56.613-7.412 11.362-19.944 26.575-36.913 45.787-51.493 29.696-22.479 64.171-34.328 102.498-35.157 10.289-0.244 19.31-6.875 22.626-16.628 3.218-9.752 0.049-20.48-8.046-26.868-62.952-49.786-134.924-79.092-214.357-87.479z"/>
<glyph unicode="" d="M994.63 15.779l-303.988 303.29c62.371 69.958 100.631 161.885 100.631 262.749 0 218.159-177.478 395.636-395.636 395.636s-395.636-177.478-395.636-395.636 177.478-395.636 395.636-395.636c100.538 0 192.186 38.028 262.051 100.026l304.081-303.383c4.561-4.515 10.473-6.796 16.431-6.796s11.916 2.281 16.477 6.842c9.030 9.123 9.030 23.831-0.047 32.908zM395.636 232.728c-192.512 0-349.091 156.579-349.091 349.091s156.579 349.091 349.091 349.091 349.091-156.579 349.091-349.091-156.579-349.091-349.091-349.091zM395.729 859.788c-154.345 0-279.924-125.533-279.924-279.878 0-12.847 10.426-23.273 23.273-23.273s23.273 10.426 23.273 23.273c0 128.652 104.681 233.332 233.379 233.332 12.847 0 23.273 10.426 23.273 23.273s-10.426 23.273-23.273 23.273z"/>
<glyph unicode="" d="M1002.667 896h-149.333c-9.899 0-18.517-6.827-20.779-16.427l-56.363-239.573h-754.859c-6.869 0-13.312-3.285-17.323-8.875-4.011-5.547-5.077-12.715-2.901-19.2l128-384c2.901-8.704 11.051-14.592 20.224-14.592h526.464l-10.027-42.667h-452.437c-47.061 0-85.333-38.272-85.333-85.333s38.272-85.333 85.333-85.333 85.333 38.272 85.333 85.333c0 15.616-4.523 30.080-11.861 42.667h322.432c-7.381-12.587-11.904-27.051-11.904-42.667 0-47.061 38.272-85.333 85.333-85.333s85.333 38.272 85.333 85.333c0 37.973-25.088 69.845-59.435 80.896l161.664 687.104h132.437c11.776 0 21.333 9.557 21.333 21.333s-9.557 21.333-21.333 21.333zM164.693 256l-113.749 341.333h715.221l-80.299-341.333h-521.173zM256 85.334c0-23.509-19.157-42.667-42.667-42.667s-42.667 19.157-42.667 42.667 19.157 42.667 42.667 42.667 42.667-19.157 42.667-42.667zM725.333 85.334c0-23.509-19.157-42.667-42.667-42.667s-42.667 19.157-42.667 42.667 19.157 42.667 42.667 42.667 42.667-19.157 42.667-42.667z"/>
<glyph unicode="" d="M461.265-93.091c-14.708 0-28.579 6.889-37.329 18.804l-414.72 558.545c-15.36 20.666-11.078 49.804 9.588 65.071 20.573 15.36 49.711 11.171 65.071-9.681l371.712-500.55 481.094 867.793c12.381 22.528 40.774 30.627 63.302 18.153 22.435-12.474 30.627-40.774 18.153-63.302l-516.189-930.909c-7.727-13.777-21.876-22.807-37.609-23.831-1.024-0.093-2.048-0.093-3.072-0.093z"/>
<glyph unicode="" d="M837.818 372.364h-651.636c-25.693 0-46.545 20.852-46.545 46.545s20.852 46.545 46.545 46.545h651.636c25.693 0 46.545-20.852 46.545-46.545s-20.852-46.545-46.545-46.545z"/>
<glyph unicode="" d="M698.182 372.364c-11.916 0-23.831 4.561-32.954 13.591l-372.364 372.364c-18.153 18.153-18.153 47.663 0 65.815s47.663 18.153 65.815 0l372.364-372.364c18.153-18.153 18.153-47.663 0-65.815-9.030-9.030-20.945-13.591-32.861-13.591zM325.818-0.093c-11.916 0-23.831 4.561-32.954 13.591-18.153 18.153-18.153 47.663 0 65.815l372.364 372.457c18.153 18.153 47.663 18.153 65.815 0s18.153-47.663 0-65.815l-372.364-372.457c-9.123-9.030-21.039-13.591-32.861-13.591z"/>
<glyph unicode="" d="M512-93.091c-282.345 0-512 229.655-512 512s229.655 512 512 512c282.345 0 512-229.655 512-512s-229.655-512-512-512zM512 837.818c-230.959 0-418.909-187.951-418.909-418.909s187.951-418.909 418.909-418.909c230.959 0 418.909 187.951 418.909 418.909s-187.951 418.909-418.909 418.909z"/>
<glyph unicode="" d="M698.182-93.091h-372.364c-179.665 0-325.818 146.153-325.818 325.818v372.364c0 179.665 146.153 325.818 325.818 325.818h372.364c179.665 0 325.818-146.153 325.818-325.818v-372.364c0-179.665-146.153-325.818-325.818-325.818zM325.818 837.818c-128.279 0-232.727-104.448-232.727-232.727v-372.364c0-128.279 104.448-232.727 232.727-232.727h372.364c128.279 0 232.727 104.448 232.727 232.727v372.364c0 128.279-104.448 232.727-232.727 232.727h-372.364z"/>
<glyph unicode="" d="M577.815 418.909l385.955 385.955c18.153 18.153 18.153 47.663 0 65.815s-47.663 18.153-65.815 0l-385.955-385.955-386.048 386.048c-18.153 18.153-47.663 18.153-65.815 0s-18.153-47.663 0-65.815l385.955-386.048-385.955-385.955c-18.153-18.153-18.153-47.663 0-65.815 9.123-9.123 21.039-13.684 32.954-13.684s23.831 4.561 32.954 13.591l385.955 386.048 385.955-385.955c9.123-9.123 21.039-13.684 32.954-13.684s23.831 4.561 32.954 13.591c18.153 18.153 18.153 47.663 0 65.815l-386.048 386.048z"/>
<glyph unicode="" d="M1024.512 578.413l-385.318 7.754-127.122 355.548-126.61-355.548-385.39-7.754 307.2-227.694-111.616-360.376 316.416 214.966 317-214.966-111.544 360.376z"/>
<glyph unicode="" d="M1017.771 616.96l-315.435 315.435c-5.547 5.589-13.781 7.637-21.291 5.291-7.552-2.304-13.227-8.619-14.72-16.341-0.299-1.451-31.872-150.485-249.771-317.739-62.251-47.787-138.88-72.021-227.84-72.021-68.011 0-117.973 14.976-118.485 15.104-9.259 2.816-19.456-1.024-24.491-9.387-5.035-8.405-3.712-19.157 3.2-26.069l258.731-258.731-228.309-228.395c-8.32-8.32-8.32-21.845 0-30.165 4.181-4.181 9.643-6.229 15.104-6.229s10.923 2.091 15.104 6.229l228.352 228.352 258.773-258.773c4.096-4.096 9.557-6.229 15.104-6.229 0.171 0.043 0.555 0 0.853 0 11.776 0 21.333 9.557 21.333 21.333 0 4.053-1.152 7.893-3.115 11.093-8.021 31.147-46.464 205.056 58.24 341.419 167.211 217.856 316.245 249.515 317.611 249.771 7.765 1.451 14.123 7.125 16.427 14.677 2.261 7.595 0.213 15.829-5.376 21.376zM655.189 357.163c-84.224-109.653-86.656-236.971-77.568-314.24l-224.64 224.597c0 0 0 0.043-0.043 0.043s-0.043 0-0.043 0.043l-224.853 224.853c17.792-2.048 38.315-3.541 60.672-3.541 97.152 0 184.917 27.947 253.824 80.853 169.472 130.091 232.405 249.771 254.549 307.541l265.6-265.6c-57.771-22.144-177.408-85.077-307.499-254.549z"/>
<glyph unicode="" d="M869.205 825.899c-93.312 93.269-245.163 93.312-338.475 0l-358.315-358.315c-8.32-8.32-8.32-21.845 0-30.165 4.181-4.181 9.643-6.229 15.104-6.229s10.923 2.091 15.104 6.229l358.315 358.315c76.715 76.672 201.515 76.587 278.144 0 76.672-76.672 76.672-201.472 0-278.144l-477.44-477.44c-53.461-53.461-140.544-53.504-194.048 0-53.461 53.504-53.461 140.544 0.043 194.048 1.237 1.237 1.92 2.773 2.816 4.224 1.408 0.896 2.944 1.536 4.181 2.773l462.336 462.464c30.336 30.293 79.616 30.293 109.952 0 14.72-14.677 22.784-34.219 22.784-54.997s-8.064-40.277-22.784-54.997l-350.251-350.336c-8.32-8.32-8.32-21.845 0-30.165 4.181-4.181 9.643-6.229 15.104-6.229s10.923 2.091 15.104 6.229l350.251 350.336c22.741 22.741 35.285 52.992 35.285 85.163 0 32.128-12.544 62.379-35.285 85.163-46.891 46.933-123.307 46.976-170.283 0l-462.464-462.464c-1.237-1.237-1.92-2.773-2.816-4.224-1.408-0.896-2.944-1.536-4.181-2.773-70.144-70.101-70.144-184.192-0.043-254.379 35.072-35.072 81.109-52.608 127.189-52.608 45.184 0 90.197 17.109 125.013 50.773 0.384 0.341 0.853 0.469 1.195 0.811l478.464 478.464c93.312 93.312 93.312 245.163 0 338.475z"/>
<glyph unicode="" d="M852.491 828.002c-86.931 86.866-228.374 86.822-315.327 0l-348.53-348.53c-4.249-4.249-4.249-11.155 0-15.404 2.135-2.135 4.924-3.181 7.713-3.181s5.578 1.068 7.713 3.181l348.509 348.53c78.434 78.347 206.085 78.369 284.519 0 78.412-78.434 78.412-206.064 0-284.476l-464.373-464.33c-0.022-0.022-0.044-0.022-0.065-0.044-27.060-27.060-63.030-41.962-101.332-41.962-38.28 0-74.251 14.902-101.311 41.962s-41.962 63.052-41.962 101.332 14.902 74.273 41.962 101.332c1.242 1.242 2.004 2.723 2.527 4.292 1.547 0.501 3.050 1.285 4.27 2.527l449.797 449.797c33.334 33.334 87.563 33.291 120.854 0 16.144-16.144 25.034-37.627 25.034-60.46s-8.889-44.293-25.034-60.438l-340.709-340.752c-4.249-4.249-4.249-11.155 0-15.404 2.135-2.135 4.924-3.181 7.713-3.181s5.578 1.068 7.713 3.181l340.709 340.752c20.284 20.262 31.417 47.191 31.417 75.841s-11.155 55.601-31.417 75.863c-41.766 41.788-109.808 41.831-151.661 0l-449.819-449.797c-1.242-1.242-2.004-2.723-2.527-4.292-1.547-0.501-3.050-1.285-4.27-2.527-31.178-31.178-48.346-72.617-48.346-116.736s17.168-85.558 48.346-116.736c31.156-31.178 72.617-48.346 116.736-48.346 43.466 0 84.295 16.754 115.32 47.060 0.131 0.109 0.327 0.153 0.458 0.305l465.375 465.375c86.887 86.909 86.887 228.33 0 315.261z"/>
<glyph unicode="" d="M60.952 21.894c-6.729 0-13.263 2.779-17.993 7.948-7.022 7.656-8.387 18.92-3.413 28.038l99.864 184.564c-90.063 72.997-139.41 168.034-139.41 269.556 0 216.503 229.669 392.631 512 392.631s512-176.177 512-392.631c0-216.454-229.669-392.582-512-392.582-58.027 0-114.834 7.314-169.058 21.797l-272.335-117.321c-3.121-1.365-6.437-1.999-9.655-1.999zM512 855.82c-255.415 0-463.238-154.234-463.238-343.82 0-91.77 48.421-178.225 136.436-243.371 9.752-7.217 12.727-20.529 6.924-31.208l-76.264-140.971 215.674 92.891c5.169 2.243 10.923 2.584 16.286 1.073 52.419-14.775 107.666-22.284 164.23-22.284 255.415 0 463.238 154.234 463.238 343.82-0.049 189.635-207.872 343.869-463.287 343.869z"/>
<glyph unicode="" d="M512 136.17c-295.762 0-507.948 301.23-510.061 304.259-2.571 3.704-2.571 8.628-0.022 12.353 2.092 3.050 212.055 304.324 510.083 304.324 317.179 0 508.47-301.666 510.366-304.716 2.179-3.508 2.201-7.931 0.022-11.46-1.874-3.028-190.813-304.76-510.388-304.76zM24.336 446.66c31.635-42.442 226.587-288.703 487.664-288.703 283.103 0 460.582 247.525 488.078 288.659-27.779 41.069-207.066 288.703-488.078 288.703-263.233 0-456.29-246.13-487.664-288.659zM512 196.085c-138.153 0-250.553 112.4-250.553 250.553s112.4 250.553 250.553 250.553 250.553-112.4 250.553-250.553-112.4-250.553-250.553-250.553zM512 675.404c-126.148 0-228.766-102.618-228.766-228.766s102.618-228.766 228.766-228.766 228.766 102.618 228.766 228.766-102.618 228.766-228.766 228.766zM356.679 513.786c-1.656 0-3.312 0.37-4.902 1.155-5.381 2.723-7.538 9.26-4.837 14.641 31.591 62.725 94.84 101.703 165.038 101.725 6.013 0 10.894-4.88 10.894-10.894s-4.88-10.894-10.894-10.894c-61.941 0-117.716-34.402-145.604-89.742-1.895-3.791-5.708-5.991-9.695-5.991z"/>
<glyph unicode="" d="M984.615 708.923h-945.231c-21.74 0-39.385 17.644-39.385 39.385s17.644 39.385 39.385 39.385h945.231c21.74 0 39.385-17.644 39.385-39.385s-17.644-39.385-39.385-39.385zM984.615 393.846h-945.231c-21.74 0-39.385 17.644-39.385 39.385s17.644 39.385 39.385 39.385h945.231c21.74 0 39.385-17.644 39.385-39.385s-17.644-39.385-39.385-39.385zM984.615 78.769h-945.231c-21.74 0-39.385 17.644-39.385 39.385s17.644 39.385 39.385 39.385h945.231c21.74 0 39.385-17.644 39.385-39.385s-17.644-39.385-39.385-39.385z"/>
<glyph unicode="" d="M1018.346 81.385l-487.068 843.598c-7.925 13.802-30.631 13.802-38.511 0l-489.739-848.273c-4.007-6.901-4.007-15.36 0-22.261 3.962-6.901 11.309-11.13 19.278-11.13h979.478c0.312 0 0.668 0 0.89 0 12.288 0 22.261 9.973 22.261 22.261-0.045 6.189-2.538 11.754-6.589 15.805zM60.817 87.886l451.183 781.446 451.183-781.49h-902.367zM556.522 400.695c12.288 0 22.261 9.973 22.261 22.261s-9.973 22.261-22.261 22.261h-89.043c-12.288 0-22.261-9.973-22.261-22.261s9.973-22.261 22.261-22.261h22.261v-178.087h-22.261c-12.288 0-22.261-9.973-22.261-22.261s9.973-22.261 22.261-22.261h89.043c12.288 0 22.261 9.973 22.261 22.261s-9.973 22.261-22.261 22.261h-22.261v178.087h22.261zM445.217 556.521c0-36.819 29.963-66.783 66.783-66.783s66.783 29.963 66.783 66.783-29.963 66.783-66.783 66.783-66.783-29.963-66.783-66.783zM534.261 556.521c0-12.288-10.017-22.261-22.261-22.261s-22.261 9.973-22.261 22.261 10.017 22.261 22.261 22.261 22.261-9.973 22.261-22.261z"/>
<glyph unicode="" d="M876.054 219.581l-208.228 74.396v102.623c63.8 52.313 105.739 139.353 105.739 237.835 0 159.566-109.88 289.391-244.87 289.391-121.5 0-222.342-105.249-241.352-242.554-0.223-1.113-0.445-2.182-0.445-3.295-1.825-14.247-3.072-28.717-3.072-43.542 0-104.092 46.926-195.228 116.87-246.205v-94.253l-208.273-74.351c-61.841-22.127-103.379-81.119-103.379-146.788v-50.577c0-12.288 9.973-22.261 22.261-22.261h845.913c12.288 0 22.261 9.973 22.261 22.261v50.577c0 65.67-41.583 124.661-103.424 146.744zM528.696 879.304c98.081 0 179.823-86.684 196.92-200.659-0.312-0.045-0.534-0.045-0.801-0.089-64.69-12.6-104.76 8.593-142.692 75.108-4.096 7.079-12.956 11.754-19.768 11.219-8.147-0.134-15.538-4.719-19.322-11.976-20.569-39.402-89.622-73.951-147.901-73.951-22.662 0-42.073 3.74-61.262 11.576 20.836 108.054 100.174 188.772 194.827 188.772zM328.348 634.435c0 3.606 0.312 7.123 0.445 10.685 20.881-7.034 42.474-10.685 66.337-10.685 61.173 0 128.267 29.073 166.244 69.009 35.528-49.375 77.334-72.793 130.538-72.793 11.754 0 24.22 1.514 37.131 3.784 0-86.105-36.641-161.792-91.804-205.468-3.295-1.336-6.099-3.562-8.37-6.233-29.473-20.97-63.666-33.169-100.174-33.169-110.458 0-200.348 109.835-200.348 244.87zM934.957 44.521h-801.391v28.316c0 46.926 29.696 89.043 73.817 104.849l223.054 79.649c8.86 3.117 14.781 11.531 14.781 20.925v84.458c26.090-11.219 54.138-17.675 83.478-17.675 33.525 0 65.491 8.058 94.609 22.528v-89.311c0-9.394 5.921-17.809 14.781-20.97l223.009-79.649c44.166-15.761 73.862-57.923 73.862-104.804v-28.316z"/>
<glyph unicode="" d="M1019.726 332.176l-63.488 87.441c-6.010 8.326-17.052 11.398-26.624 7.435l-108.722-45.501c-11.309-4.764-16.651-17.809-11.932-29.117 4.764-11.353 17.72-16.696 29.117-11.976l67.807 28.405c-34.816-179.022-186.591-311.608-370.109-321.67v531.59h137.839c12.288 0 22.261 9.973 22.261 22.261s-9.928 22.261-22.216 22.261h-137.839v108.41c38.022 9.928 66.204 44.255 66.204 85.304 0 48.796-39.713 88.509-88.465 88.509-48.84 0-88.509-39.713-88.509-88.509 0-41.049 28.271-75.375 66.248-85.348v-108.366h-140.956c-12.288 0-22.261-9.973-22.261-22.261s9.973-22.261 22.261-22.261h140.956v-531.545c-183.519 10.062-335.293 142.514-370.109 321.447l67.317-28.182c11.398-4.719 24.353 0.623 29.117 11.976 4.719 11.309-0.623 24.353-11.932 29.117l-108.722 45.501c-9.617 3.962-20.614 0.89-26.624-7.435l-63.488-87.441c-7.213-9.973-5.031-23.864 4.897-31.121 3.962-2.849 8.504-4.23 13.089-4.23 6.856 0 13.668 3.161 17.987 9.171l35.662 49.107c42.118-204.355 221.763-353.458 435.022-353.458 212.992 0 392.459 148.836 434.933 352.924l35.261-48.573c4.363-6.010 11.13-9.171 17.987-9.171 4.586 0 9.127 1.38 13.089 4.23 10.017 7.213 12.154 21.103 4.942 31.076zM469.571 817.018c0 24.264 19.723 43.987 43.987 43.987 24.22 0 43.943-19.723 43.943-43.987 0-22.662-17.497-40.737-39.491-43.053-1.514 0.312-2.894 0.89-4.497 0.89s-2.938-0.579-4.497-0.89c-21.994 2.315-39.446 20.391-39.446 43.053z"/>
<glyph unicode="" d="M438.858 554.668q0 60.572-42.858 103.43t-103.428 42.856-103.43-42.856-42.856-103.428 42.856-103.428 103.43-42.856 103.428 42.856 42.856 103.428zM585.144 554.668q0-62.286-18.856-102.286l-208-442.286q-9.144-18.856-27.144-29.714t-38.572-10.856-38.57 10.856-26.57 29.714l-208.57 442.286q-18.856 40-18.856 102.286 0 121.142 85.714 206.856t206.856 85.714 206.856-85.714 85.714-206.856z" horiz-adv-x="586"/>
<glyph unicode="" d="M804.572 211.81q0-15.428-5.714-40.286t-12-39.144q-12-28.572-69.714-60.572-53.714-29.144-106.286-29.144-15.428 0-30 2t-32.856 7.144-27.144 8.286-31.714 11.714-28 10.286q-56 20-100 47.428-73.142 45.144-151.144 123.144t-123.144 151.144q-27.43 44-47.43 100-1.714 5.142-10.286 28t-11.714 31.714-8.286 27.144-7.142 32.856-2 30q0 52.572 29.144 106.286 32 57.714 60.57 69.714 14.286 6.286 39.144 12t40.286 5.714q8 0 12-1.714 10.286-3.428 30.286-43.428 6.286-10.858 17.144-30.858t20-36.286 17.714-30.572q1.714-2.286 10-14.286t12.286-20.286 4-16.286q0-11.428-16.286-28.572t-35.43-31.428-35.43-30.286-16.286-26.286q0-5.144 2.856-12.856t4.856-11.714 8-13.714 6.57-10.856q43.43-78.286 99.43-134.286t134.286-99.428q1.142-0.572 10.856-6.572t13.714-8 11.714-4.856 12.856-2.856q10.286 0 26.286 16.286t30.286 35.428 31.428 35.428 28.572 16.286q8 0 16.286-4t20.286-12.286 14.286-10q14.286-8.572 30.572-17.714t36.286-20 30.856-17.144q40-20 43.428-30.286 1.714-4 1.714-12z" horiz-adv-x="806"/>
<glyph unicode="" d="M1024 514.668v-453.714q0-37.714-26.856-64.572t-64.572-26.856h-841.144q-37.714 0-64.57 26.856t-26.856 64.572v453.714q25.144-28 57.714-49.714 206.858-140.572 284-197.144 32.57-24 52.858-37.428t54-27.428 62.856-14h1.144q29.144 0 62.856 14t54 27.428 52.856 37.428q97.144 70.286 284.572 197.144 32.572 22.286 57.144 49.714zM1024 682.668q0-45.142-28-86.286t-69.714-70.286q-214.856-149.142-267.428-185.714-5.714-4-24.286-17.428t-30.856-21.714-29.714-18.572-32.856-15.428-28.572-5.144h-1.142q-13.142 0-28.572 5.144t-32.858 15.428-29.714 18.572-30.858 21.714-24.286 17.428q-52 36.572-149.714 104.286t-117.144 81.43q-35.43 24-66.856 66t-31.428 78q0 44.57 23.714 74.286t67.714 29.714h841.144q37.144 0 64.286-26.856t27.144-64.572z"/>
<glyph unicode="" d="M164.57 700.952q37.714 0 64.57-26.856t26.856-64.57v-621.714q0-37.714-26.856-64.572t-64.57-26.856h-73.144q-37.714 0-64.57 26.856t-26.856 64.572v621.714q0 37.714 26.856 64.57t64.57 26.858h73.144zM950.856 607.81q33.144-19.428 53.144-53.144t20-73.144v-438.858q0-60.572-42.856-103.428t-103.428-42.858h-493.714q-37.714 0-64.57 26.856t-26.856 64.572v877.714q0 22.856 16 38.856t38.856 16h384q22.856 0 50.286-11.428t43.428-27.428l86.856-86.858q16-16 27.428-43.428t11.428-50.286v-93.142zM530.286 42.668v73.144q0 8-5.144 13.144t-13.144 5.144h-73.144q-8 0-13.144-5.144t-5.142-13.144v-73.144q0-8 5.142-13.144t13.144-5.144h73.144q8 0 13.144 5.144t5.144 13.144zM530.286 188.952v73.144q0 8-5.144 13.144t-13.144 5.144h-73.144q-8 0-13.144-5.144t-5.142-13.144v-73.144q0-8 5.142-13.144t13.144-5.144h73.144q8 0 13.144 5.144t5.144 13.144zM530.286 335.238v73.144q0 8-5.144 13.144t-13.144 5.142h-73.144q-8 0-13.144-5.142t-5.142-13.144v-73.144q0-8 5.142-13.144t13.144-5.144h73.144q8 0 13.144 5.144t5.144 13.144zM676.572 42.668v73.144q0 8-5.144 13.144t-13.144 5.144h-73.144q-8 0-13.144-5.144t-5.144-13.144v-73.144q0-8 5.144-13.144t13.144-5.144h73.144q8 0 13.144 5.144t5.144 13.144zM676.572 188.952v73.144q0 8-5.144 13.144t-13.144 5.144h-73.144q-8 0-13.144-5.144t-5.144-13.144v-73.144q0-8 5.144-13.144t13.144-5.144h73.144q8 0 13.144 5.144t5.144 13.144zM676.572 335.238v73.144q0 8-5.144 13.144t-13.144 5.142h-73.144q-8 0-13.144-5.142t-5.144-13.144v-73.144q0-8 5.144-13.144t13.144-5.144h73.144q8 0 13.144 5.144t5.144 13.144zM822.856 42.668v73.144q0 8-5.144 13.144t-13.144 5.144h-73.144q-8 0-13.144-5.144t-5.144-13.144v-73.144q0-8 5.144-13.144t13.144-5.144h73.144q8 0 13.144 5.144t5.144 13.144zM822.856 188.952v73.144q0 8-5.144 13.144t-13.144 5.144h-73.144q-8 0-13.144-5.144t-5.144-13.144v-73.144q0-8 5.144-13.144t13.144-5.144h73.144q8 0 13.144 5.144t5.144 13.144zM822.856 335.238v73.144q0 8-5.144 13.144t-13.144 5.142h-73.144q-8 0-13.144-5.142t-5.144-13.144v-73.144q0-8 5.144-13.144t13.144-5.144h73.144q8 0 13.144 5.144t5.144 13.144zM877.714 554.668v146.286h-91.428q-22.856 0-38.856 16t-16 38.856v91.428h-365.714v-292.572h512z"/>
<glyph unicode="" d="M1020.127 457.772c-7.747 11.264-192.334 275.857-508.127 275.857-296.693 0-499.044-263.791-507.503-275.011-6.010-7.969-5.966-18.966 0.089-26.891 8.548-11.219 212.947-274.922 507.414-274.922 318.152 0 500.558 264.682 508.171 275.946 5.12 7.569 5.075 17.497-0.045 25.021zM512 201.327c-235.609 0-415.61 191.043-460.978 243.935 45.011 52.981 223.677 243.846 460.978 243.846 254.13 0 421.799-192.557 462.002-243.979-39.802-51.512-205.468-243.801-462.002-243.801zM512 659.1c-117.938 0-213.927-95.944-213.927-213.882 0-117.894 95.944-213.838 213.927-213.838s213.927 95.944 213.927 213.838c0 117.938-95.989 213.882-213.927 213.882zM512 275.901c-93.407 0-169.405 75.954-169.405 169.316s75.999 169.361 169.405 169.361 169.405-75.999 169.405-169.361-75.999-169.316-169.405-169.316z"/>
<glyph unicode="" d="M868.174 667.826h-142.781l-42.741 76.533c-19.634 35.172-56.899 57.032-97.191 57.032h-146.922c-40.292 0-77.557-21.86-97.191-57.032l-42.741-76.533h-142.781c-61.395 0-111.304-49.909-111.304-111.304v-311.652c0-61.351 49.909-111.304 111.304-111.304h712.348c61.395 0 111.304 49.953 111.304 111.304v311.652c0 61.395-49.909 111.304-111.304 111.304zM934.957 244.869c0-36.819-29.963-66.783-66.783-66.783h-712.348c-36.819 0-66.783 29.963-66.783 66.783v311.652c0 36.864 29.963 66.783 66.783 66.783h155.826c8.058 0 15.494 4.363 19.456 11.398l49.107 87.93c11.798 21.148 34.148 34.237 58.323 34.237h146.966c24.175 0 46.525-13.089 58.323-34.193l49.152-87.93c3.873-7.034 11.309-11.442 19.367-11.442h155.826c36.819 0 66.783-29.919 66.783-66.783v-311.652zM512 623.304c-110.458 0-200.348-89.889-200.348-200.348s89.889-200.348 200.348-200.348 200.348 89.889 200.348 200.348-89.889 200.348-200.348 200.348zM512 267.13c-85.927 0-155.826 69.899-155.826 155.826s69.899 155.826 155.826 155.826 155.826-69.899 155.826-155.826-69.899-155.826-155.826-155.826z"/>
<glyph unicode="" d="M1018.301 788.391c-7.435 3.784-16.25 3.206-23.107-1.558l-239.171-168.826c-4.23 77.201-68.653 138.863-147.946 138.863h-459.286c-82.054 0-148.792-65.848-148.792-146.788v-285.162c0-80.985 66.738-146.833 148.792-146.833h459.286c79.293 0 143.716 61.663 147.946 138.863l239.171-168.826c3.829-2.716 8.326-4.051 12.822-4.051 3.517 0 6.99 0.846 10.24 2.493 7.346 3.829 12.021 11.442 12.021 19.768v602.335c0.045 8.326-4.63 15.939-11.976 19.723zM712.348 324.875c0-56.365-46.792-102.266-104.27-102.266h-459.286c-57.478 0-104.27 45.902-104.27 102.266v285.206c0 56.365 46.792 102.266 104.27 102.266h459.286c57.478 0 104.27-45.902 104.27-102.266v-285.206zM985.8 209.252l-228.931 161.614v193.224l228.931 161.614v-516.452zM224.167 591.159c-68.207 0-123.726-55.519-123.726-123.681s55.519-123.681 123.726-123.681c68.163 0 123.637 55.519 123.637 123.681s-55.474 123.681-123.637 123.681zM224.167 388.318c-43.676 0-79.204 35.528-79.204 79.16s35.528 79.16 79.204 79.16c43.631 0 79.115-35.528 79.115-79.16s-35.439-79.16-79.115-79.16zM532.703 591.159c-68.163 0-123.637-55.519-123.637-123.681s55.474-123.681 123.637-123.681c68.207 0 123.726 55.519 123.726 123.681s-55.519 123.681-123.726 123.681zM532.703 388.318c-43.631 0-79.115 35.528-79.115 79.16s35.484 79.16 79.115 79.16c43.676 0 79.204-35.528 79.204-79.16s-35.528-79.16-79.204-79.16z"/>
<glyph unicode="" d="M934.957 467.478c0 119.719-50.265 227.773-130.493 304.796-0.401 0.445-0.534 1.024-0.935 1.469-0.89 0.935-2.003 1.38-3.027 2.137-75.642 70.834-176.929 114.554-288.501 114.554-111.75 0-213.17-43.854-288.857-114.866-0.89-0.668-1.87-1.069-2.671-1.87-0.356-0.356-0.49-0.89-0.757-1.247-80.362-77.023-130.671-185.166-130.671-304.974s50.31-227.951 130.671-304.974c0.312-0.401 0.445-0.89 0.801-1.247 0.801-0.801 1.781-1.158 2.627-1.87 75.642-71.012 177.107-114.866 288.857-114.866 111.616 0 212.992 43.765 288.634 114.688 0.935 0.712 2.048 1.113 2.894 2.003 0.401 0.445 0.534 0.979 0.935 1.469 80.228 77.023 130.493 185.077 130.493 304.796zM785.898 207.115c-24.442 20.925-50.799 39.046-78.848 53.693 15.805 54.717 25.199 117.315 26.98 184.409h155.247c-5.343-92.026-43.587-175.238-103.379-238.102zM534.261 262.901c40.737-2.36 80.495-10.819 117.715-25.645-28.494-77.379-70.478-131.562-117.715-144.74v170.385zM534.261 307.422v137.795h155.247c-1.692-59.659-10.195-115.979-23.953-165.621-41.583 16.206-85.838 25.466-131.295 27.826zM534.261 489.739v137.795c45.457 2.36 89.711 11.62 131.295 27.826 13.757-49.642 22.261-105.962 23.953-165.621h-155.247zM534.261 672.055v170.385c47.238-13.178 89.222-67.361 117.715-144.74-37.22-14.826-76.978-23.285-117.715-25.645zM630.829 826.501c45.234-15.004 86.773-38.111 122.657-67.94-19.055-15.85-39.446-29.741-60.906-41.45-16.607 43.72-37.532 80.807-61.752 109.39zM489.739 842.44v-170.385c-40.737 2.36-80.495 10.819-117.715 25.645 28.494 77.379 70.478 131.562 117.715 144.74zM331.42 717.111c-21.459 11.709-41.806 25.6-60.906 41.45 35.885 29.83 77.423 52.936 122.657 67.94-24.22-28.583-45.145-65.67-61.752-109.39zM489.739 627.534v-137.795h-155.247c1.692 59.659 10.195 115.979 23.953 165.621 41.583-16.206 85.838-25.466 131.295-27.826zM489.739 445.217v-137.795c-45.457-2.36-89.711-11.62-131.295-27.826-13.757 49.642-22.261 105.962-23.953 165.621h155.247zM489.739 262.901v-170.385c-47.238 13.178-89.222 67.361-117.715 144.74 37.22 14.826 76.978 23.285 117.715 25.645zM393.171 108.455c-45.234 15.004-86.773 38.111-122.657 67.94 19.1 15.85 39.446 29.741 60.906 41.45 16.607-43.72 37.532-80.807 61.752-109.39zM692.58 217.845c21.459-11.709 41.85-25.6 60.906-41.45-35.885-29.83-77.423-52.936-122.657-67.94 24.22 28.583 45.145 65.67 61.752 109.39zM889.322 489.739h-155.247c-1.781 67.094-11.175 129.647-26.98 184.409 28.093 14.648 54.45 32.768 78.848 53.693 59.748-62.865 97.992-146.076 103.379-238.102zM238.102 727.841c24.487-20.881 50.799-39.046 78.848-53.693-15.805-54.762-25.199-117.315-26.98-184.409h-155.292c5.387 92.026 43.631 175.238 103.424 238.102zM134.678 445.217h155.247c1.781-67.094 11.219-129.647 27.025-184.409-28.138-14.648-54.45-32.768-78.893-53.693-59.748 62.865-97.992 146.076-103.379 238.102z"/>
<glyph unicode="" d="M742.044 479.276c-13.935 12.911-31.343 24.665-51.69 34.861-19.501 9.795-38.333 17.586-55.964 23.107-17.007 5.254-36.152 10.329-57.478 15.093l-94.119 21.905c-5.254 1.291-11.798 3.473-19.501 6.456-9.528 3.695-12.333 6.055-12.555 6.189-1.914 1.736-3.918 4.319-5.743 7.48-1.291 2.315-1.959 5.075-2.003 8.237 0 22.216 37.843 26.891 69.587 26.891 15.716 0 29.785-2.137 41.761-6.367 11.932-4.23 21.281-9.082 27.693-14.425 8.147-6.678 15.85-13.535 23.151-20.346 9.038-8.593 19.233-15.983 29.963-21.86 34.371-19.1 80.673-11.309 106.273 17.408 15.761 17.764 23.775 39.268 23.775 63.933 0 30.408-14.87 57.611-44.166 80.851-26.179 20.703-59.303 36.552-98.616 47.104-66.070 17.631-143.093 21.504-211.167 4.942-29.251-7.123-56.854-17.942-82.009-32.234-26.891-15.226-48.707-36.552-64.868-63.399-16.295-27.025-24.531-58.413-24.576-93.451 0-28.717 4.63-54.45 13.802-76.444 9.439-22.662 23.641-41.806 42.296-56.899 17.363-14.069 36.241-25.511 56.186-34.059 19.411-8.37 42.073-15.583 69.231-21.949l93.139-22.973c49.998-12.199 62.152-18.432 65.002-20.257 5.075-3.161 9.839-7.658 9.839-19.322 0-5.921-1.736-13.846-15.093-22.35-13.312-8.459-31.789-12.778-54.984-12.778-18.521 0-35.439 2.894-50.131 8.637-14.781 5.877-26.401 12.689-34.549 20.302-9.973 9.171-19.278 18.343-27.826 27.514-9.928 10.73-21.192 20.213-33.614 28.227-14.202 9.082-29.83 13.668-46.392 13.668-28.093 0-49.998-9.082-65.091-26.936-14.291-16.785-21.549-37.754-21.549-62.241 0-47.772 30.141-88.153 89.578-120.075 55.029-29.429 120.966-44.388 195.94-44.388 32.679 0 64.735 4.23 95.277 12.6 30.586 8.504 58.813 20.881 84.057 36.775 26.579 16.785 48.083 39.491 63.933 67.45 15.894 28.138 23.908 60.104 23.819 94.831 0 24.398-4.897 47.238-14.559 67.807-9.572 20.124-21.682 37.087-36.063 50.488zM729.978 288.1c-12.333-21.816-28.405-38.734-48.974-51.779-21.504-13.535-45.768-24.131-72.081-31.477-26.669-7.346-54.717-11.041-83.434-11.041-67.584 0-126.442 13.134-174.97 39.090-44.433 23.864-66.026 50.31-66.026 80.807 0 13.846 3.562 24.754 10.997 33.48 2.36 2.76 9.483 11.219 31.121 11.219 8.058 0 15.405-2.182 22.35-6.589 9.171-5.877 17.586-13 25.021-21.014 9.35-10.062 19.456-20.035 30.186-29.874 12.288-11.487 28.138-20.97 48.573-29.117 19.99-7.747 42.34-11.709 66.382-11.709 31.833 0 58.413 6.634 78.937 19.768 29.473 18.833 35.662 42.963 35.662 59.882 0 24.932-10.685 44.7-30.631 56.988-7.969 5.12-23.997 12.644-78.18 25.867l-93.318 23.018c-24.398 5.743-45.234 12.333-62.019 19.545-16.206 6.945-31.61 16.295-45.768 27.782-13 10.507-22.528 23.418-29.162 39.357-6.856 16.562-10.329 36.508-10.329 59.347 0.045 26.758 6.144 50.488 18.209 70.478 12.288 20.48 28.227 36.107 48.662 47.638 21.593 12.288 45.323 21.549 70.478 27.648 60.995 14.915 130.315 11.13 189.173-4.63 33.391-8.949 61.128-22.083 82.499-39.001 18.387-14.559 27.292-29.607 27.292-45.946 0-13.624-4.096-24.843-12.511-34.326-12.154-13.624-34.193-17.586-51.512-8.014-7.658 4.185-14.425 9.127-20.925 15.271-8.058 7.48-16.473 14.959-25.288 22.261-10.641 8.771-24.086 15.939-41.227 22.038-16.74 5.921-35.795 8.904-56.587 8.904-94.297 0-114.109-38.823-114.109-71.635 0.134-10.819 2.716-20.792 7.791-29.919 4.452-7.791 9.439-14.024 15.271-19.144 5.832-5.075 14.202-9.661 25.689-14.158 9.973-3.829 18.298-6.545 24.888-8.147l94.965-22.083c20.168-4.541 38.155-9.261 54.094-14.202 15.315-4.764 31.878-11.665 49.241-20.391 16.607-8.37 30.542-17.675 41.361-27.693 10.195-9.483 18.922-21.86 25.912-36.775 6.856-14.603 10.329-31.076 10.418-48.885 0-27.381-5.966-51.245-18.12-72.838zM974.492 377.099c5.788 30.542 8.682 60.861 8.682 90.335 0 63.488-12.466 125.106-37.131 183.162-24.665 57.789-58.413 108.41-100.397 150.483-42.029 42.029-92.739 75.821-150.573 100.397-84.591 36.018-175.95 46.881-273.453 28.494-45.946 32.857-97.903 49.508-154.49 49.508-73.372 0-136.949-26.312-188.861-78.269s-78.269-115.489-78.269-188.861c0-56.587 16.651-108.544 49.508-154.49-5.832-30.675-8.726-61.039-8.726-90.335 0-63.443 12.511-125.106 37.22-183.162 24.621-57.878 58.413-108.544 100.397-150.483 41.984-42.029 92.65-75.821 150.483-100.397 84.858-36.107 177.152-46.57 273.497-28.449 45.991-32.902 97.903-49.553 154.49-49.553 73.372 0 136.949 26.312 188.861 78.269s78.269 115.489 78.269 188.861c0 56.587-16.651 108.499-49.508 154.49zM914.254 65.224c-43.854-43.898-95.366-65.224-157.384-65.224-50.666 0-95.054 15.182-135.658 46.392-3.918 3.027-8.682 4.63-13.579 4.63-1.514 0-3.027-0.134-4.586-0.49-90.691-18.922-177.286-9.884-256.846 23.864-52.536 22.35-98.438 52.936-136.37 90.913-37.933 37.933-68.519 83.834-90.913 136.459-22.35 52.536-33.658 108.321-33.658 165.754 0 29.384 3.25 60.060 9.75 91.091 1.336 6.367-0.178 13-4.141 18.12-31.165 40.604-46.347 84.947-46.347 135.613 0 62.019 21.326 113.486 65.224 157.384s95.366 65.224 157.384 65.224c50.666 0 95.009-15.182 135.613-46.392 5.12-3.962 11.843-5.432 18.076-4.141 92.16 19.1 177.642 9.795 256.846-23.908 52.625-22.305 98.527-52.892 136.504-90.869 37.933-38.022 68.519-83.923 90.913-136.459 22.261-52.491 33.569-108.232 33.569-165.71 0-29.607-3.25-60.238-9.75-91.091-1.336-6.367 0.178-13 4.141-18.12 31.254-40.693 46.436-85.037 46.436-135.658 0-62.019-21.326-113.486-65.224-157.384z"/>
</font>
</defs>
</svg>
